<svg xmlns="http://www.w3.org/2000/svg" xmlns:xlink="http://www.w3.org/1999/xlink" version="1.1" id="Layer_1" x="0px" y="0px" width="100px" height="100px" viewBox="5.0 -10.0 100.0 135.0" enable-background="new 0 0 100 100" xml:space="preserve">
<circle fill="none" cx="50.001" cy="27.993" r="0.68"/>
<path fill="none" d="M83.857,50.824H16.142v15.453h67.715V50.824z M33.342,64.238H19.117v-1.551h14.225V64.238L33.342,64.238z   M33.342,60.969H19.117v-8.242h14.225V60.969L33.342,60.969z M49.241,64.238H35.015v-1.551h14.226V64.238z M49.241,60.969H35.015  v-8.242h14.226V60.969z M65.139,64.238H50.913v-1.551h14.226V64.238z M65.139,60.969H50.913v-8.242h14.226V60.969z M81.037,64.238  H66.811v-1.551h14.228L81.037,64.238L81.037,64.238z M81.037,60.969H66.811v-8.242h14.228L81.037,60.969L81.037,60.969z"/>
<path fill="none" d="M54.303,70.684h-8.605c-0.375,0-0.681,0.305-0.681,0.68s0.306,0.681,0.681,0.681h8.605  c0.377,0,0.682-0.306,0.682-0.681S54.68,70.684,54.303,70.684z"/>
<path d="M86.629,69.109h-0.002c0.111-0.228,0.178-0.479,0.178-0.748V28.106c0-0.952-0.771-1.725-1.726-1.725h-70.16  c-0.953,0-1.725,0.772-1.725,1.725v40.255c0,0.27,0.066,0.521,0.176,0.748H5v2.783c0,0.953,0.772,1.726,1.725,1.726h86.55  c0.953,0,1.726-0.772,1.726-1.726v-2.783H86.629z M43.184,47.132v1.224h-3.488v-1.224H43.184z M38.023,47.132v1.224H25.358v-0.001  v-1.223v-0.001L38.023,47.132L38.023,47.132L38.023,47.132z M21.01,46.252v-1.224h5.832v1.224H21.01z M24.498,47.132v1.224H21.01  v-1.224H24.498z M29.704,34.725v1.225H21.01v-1.225H29.704z M21.01,33.889v-1.224h3.488v1.224H21.01z M32.603,36.786v1.224H21.01  v-1.224H32.603z M29.704,38.846v1.225H21.01v-1.225H29.704z M29.704,40.907v1.224H21.01v-1.224H29.704z M24.498,42.967v1.225H21.01  v-1.225H24.498z M19.117,46.252v-1.224h1.057v1.224H19.117z M20.174,47.088v1.224h-1.057v-1.224H20.174z M19.117,44.192v-1.225  h1.057v1.225H19.117z M19.117,42.131v-1.224h1.057v1.224H19.117z M19.117,40.071v-1.225h1.057v1.225H19.117z M19.117,38.01v-1.224  h1.057v1.224H19.117z M19.117,35.95v-1.225h1.057v1.225H19.117z M19.117,33.889v-1.224h1.057v1.224H19.117z M50.001,27.313  c0.375,0,0.681,0.306,0.681,0.681s-0.306,0.68-0.681,0.68c-0.376,0-0.681-0.305-0.681-0.68S49.625,27.313,50.001,27.313z   M16.142,50.824h67.715v15.453H16.142V50.824z M54.303,72.043h-8.605c-0.375,0-0.681-0.305-0.681-0.68s0.306-0.68,0.681-0.68h8.605  c0.377,0,0.682,0.305,0.682,0.68S54.68,72.043,54.303,72.043z"/>
<rect x="19.117" y="62.688" width="14.225" height="1.551"/>
<rect x="35.015" y="62.688" width="14.226" height="1.551"/>
<rect x="50.913" y="62.688" width="14.226" height="1.551"/>
<rect x="66.811" y="62.688" width="14.228" height="1.551"/>
<rect x="19.117" y="52.727" width="14.225" height="8.242"/>
<rect x="35.015" y="52.727" width="14.226" height="8.242"/>
<rect x="50.913" y="52.727" width="14.226" height="8.242"/>
<rect x="66.811" y="52.727" width="14.228" height="8.242"/>
<text x="0.0" y="117.5" font-size="5.0" font-weight="bold" font-family="Helvetica Neue, Helvetica, Arial-Unicode, Arial, Sans-serif" fill="#000000">Created by Wilson Joseph</text><text x="0.0" y="122.5" font-size="5.0" font-weight="bold" font-family="Helvetica Neue, Helvetica, Arial-Unicode, Arial, Sans-serif" fill="#000000">from the Noun Project</text></svg>